<mxfile host="app.diagrams.net" modified="2024-02-26T08:10:50.554Z" agent="Mozilla/5.0 (Windows NT 10.0; Win64; x64) AppleWebKit/537.36 (KHTML, like Gecko) Chrome/121.0.0.0 Safari/537.36 Edg/121.0.0.0" etag="zG44qe6Pb2wuE4kJawBj" version="23.1.6" type="github">
  <diagram id="C5RBs43oDa-KdzZeNtuy" name="Page-1">
    <mxGraphModel dx="983" dy="1298" grid="1" gridSize="10" guides="1" tooltips="1" connect="1" arrows="1" fold="1" page="1" pageScale="1" pageWidth="827" pageHeight="1169" math="0" shadow="0">
      <root>
        <mxCell id="WIyWlLk6GJQsqaUBKTNV-0" />
        <mxCell id="WIyWlLk6GJQsqaUBKTNV-1" parent="WIyWlLk6GJQsqaUBKTNV-0" />
        <mxCell id="LLfy2bYGSZKIKQnE_vxT-8" style="edgeStyle=none;curved=1;rounded=0;orthogonalLoop=1;jettySize=auto;html=1;entryX=0.5;entryY=0;entryDx=0;entryDy=0;fontSize=12;startSize=8;endSize=8;" edge="1" parent="WIyWlLk6GJQsqaUBKTNV-1">
          <mxGeometry relative="1" as="geometry">
            <mxPoint x="400" y="100" as="sourcePoint" />
            <mxPoint x="400" y="150" as="targetPoint" />
          </mxGeometry>
        </mxCell>
        <mxCell id="LLfy2bYGSZKIKQnE_vxT-6" style="edgeStyle=none;curved=1;rounded=0;orthogonalLoop=1;jettySize=auto;html=1;fontSize=12;startSize=8;endSize=8;" edge="1" parent="WIyWlLk6GJQsqaUBKTNV-1">
          <mxGeometry relative="1" as="geometry">
            <mxPoint x="400" y="290" as="targetPoint" />
            <mxPoint x="400" y="240" as="sourcePoint" />
          </mxGeometry>
        </mxCell>
        <mxCell id="LLfy2bYGSZKIKQnE_vxT-10" style="edgeStyle=none;curved=1;rounded=0;orthogonalLoop=1;jettySize=auto;html=1;fontSize=12;startSize=8;endSize=8;" edge="1" parent="WIyWlLk6GJQsqaUBKTNV-1" source="LLfy2bYGSZKIKQnE_vxT-9">
          <mxGeometry relative="1" as="geometry">
            <mxPoint x="400" y="390" as="targetPoint" />
          </mxGeometry>
        </mxCell>
        <mxCell id="LLfy2bYGSZKIKQnE_vxT-9" value="Input angka1" style="shape=parallelogram;perimeter=parallelogramPerimeter;whiteSpace=wrap;html=1;fixedSize=1;" vertex="1" parent="WIyWlLk6GJQsqaUBKTNV-1">
          <mxGeometry x="305" y="290" width="190" height="50" as="geometry" />
        </mxCell>
        <mxCell id="LLfy2bYGSZKIKQnE_vxT-23" style="edgeStyle=none;curved=1;rounded=0;orthogonalLoop=1;jettySize=auto;html=1;fontSize=12;startSize=8;endSize=8;" edge="1" parent="WIyWlLk6GJQsqaUBKTNV-1" source="LLfy2bYGSZKIKQnE_vxT-11" target="LLfy2bYGSZKIKQnE_vxT-24">
          <mxGeometry relative="1" as="geometry">
            <mxPoint x="400" y="480" as="targetPoint" />
          </mxGeometry>
        </mxCell>
        <mxCell id="LLfy2bYGSZKIKQnE_vxT-11" value="Input angka2&amp;nbsp;" style="shape=parallelogram;perimeter=parallelogramPerimeter;whiteSpace=wrap;html=1;fixedSize=1;" vertex="1" parent="WIyWlLk6GJQsqaUBKTNV-1">
          <mxGeometry x="302.5" y="390" width="195" height="60" as="geometry" />
        </mxCell>
        <mxCell id="LLfy2bYGSZKIKQnE_vxT-14" value="Start" style="strokeWidth=2;html=1;shape=mxgraph.flowchart.terminator;whiteSpace=wrap;" vertex="1" parent="WIyWlLk6GJQsqaUBKTNV-1">
          <mxGeometry x="350" y="40" width="100" height="60" as="geometry" />
        </mxCell>
        <mxCell id="LLfy2bYGSZKIKQnE_vxT-16" value="" style="verticalLabelPosition=bottom;verticalAlign=top;html=1;shape=hexagon;perimeter=hexagonPerimeter2;arcSize=6;size=0.27;" vertex="1" parent="WIyWlLk6GJQsqaUBKTNV-1">
          <mxGeometry x="260" y="150" width="280" height="90" as="geometry" />
        </mxCell>
        <mxCell id="LLfy2bYGSZKIKQnE_vxT-17" value="Float angka1, angka2, jumlah int, pilih" style="text;html=1;align=center;verticalAlign=middle;whiteSpace=wrap;rounded=0;fontSize=16;" vertex="1" parent="WIyWlLk6GJQsqaUBKTNV-1">
          <mxGeometry x="295" y="167.5" width="210" height="55" as="geometry" />
        </mxCell>
        <mxCell id="LLfy2bYGSZKIKQnE_vxT-24" value="Tentukan operator&lt;br&gt;(pilih)" style="rhombus;whiteSpace=wrap;html=1;" vertex="1" parent="WIyWlLk6GJQsqaUBKTNV-1">
          <mxGeometry x="330" y="490" width="140" height="120" as="geometry" />
        </mxCell>
        <mxCell id="LLfy2bYGSZKIKQnE_vxT-25" value="" style="edgeStyle=elbowEdgeStyle;elbow=vertical;endArrow=classic;html=1;curved=0;rounded=0;endSize=8;startSize=8;fontSize=12;" edge="1" parent="WIyWlLk6GJQsqaUBKTNV-1" target="LLfy2bYGSZKIKQnE_vxT-26">
          <mxGeometry width="50" height="50" relative="1" as="geometry">
            <mxPoint x="400" y="610" as="sourcePoint" />
            <mxPoint x="60" y="700" as="targetPoint" />
            <Array as="points">
              <mxPoint x="80" y="620" />
              <mxPoint x="75" y="620" />
            </Array>
          </mxGeometry>
        </mxCell>
        <mxCell id="LLfy2bYGSZKIKQnE_vxT-29" style="edgeStyle=none;curved=1;rounded=0;orthogonalLoop=1;jettySize=auto;html=1;fontSize=12;startSize=8;endSize=8;" edge="1" parent="WIyWlLk6GJQsqaUBKTNV-1" source="LLfy2bYGSZKIKQnE_vxT-26">
          <mxGeometry relative="1" as="geometry">
            <mxPoint x="200" y="700" as="targetPoint" />
          </mxGeometry>
        </mxCell>
        <mxCell id="LLfy2bYGSZKIKQnE_vxT-26" value="Case1&lt;br&gt;angka1 + angka2 = Hasil" style="rounded=0;whiteSpace=wrap;html=1;" vertex="1" parent="WIyWlLk6GJQsqaUBKTNV-1">
          <mxGeometry y="670" width="150" height="60" as="geometry" />
        </mxCell>
        <mxCell id="LLfy2bYGSZKIKQnE_vxT-28" value="" style="edgeStyle=elbowEdgeStyle;elbow=horizontal;endArrow=classic;html=1;curved=0;rounded=0;endSize=8;startSize=8;fontSize=12;" edge="1" parent="WIyWlLk6GJQsqaUBKTNV-1">
          <mxGeometry width="50" height="50" relative="1" as="geometry">
            <mxPoint x="20" y="640" as="sourcePoint" />
            <mxPoint x="780" y="840" as="targetPoint" />
            <Array as="points">
              <mxPoint x="780" y="640" />
            </Array>
          </mxGeometry>
        </mxCell>
        <mxCell id="LLfy2bYGSZKIKQnE_vxT-30" value="" style="endArrow=classic;html=1;rounded=0;fontSize=12;startSize=8;endSize=8;" edge="1" parent="WIyWlLk6GJQsqaUBKTNV-1">
          <mxGeometry width="50" height="50" relative="1" as="geometry">
            <mxPoint x="200" y="640" as="sourcePoint" />
            <mxPoint x="200" y="750" as="targetPoint" />
          </mxGeometry>
        </mxCell>
        <mxCell id="LLfy2bYGSZKIKQnE_vxT-31" value="Case1&lt;br&gt;angka1 + angka2 = Hasil" style="rounded=0;whiteSpace=wrap;html=1;" vertex="1" parent="WIyWlLk6GJQsqaUBKTNV-1">
          <mxGeometry y="670" width="150" height="60" as="geometry" />
        </mxCell>
        <mxCell id="LLfy2bYGSZKIKQnE_vxT-58" style="edgeStyle=none;curved=1;rounded=0;orthogonalLoop=1;jettySize=auto;html=1;fontSize=12;startSize=8;endSize=8;" edge="1" parent="WIyWlLk6GJQsqaUBKTNV-1" source="LLfy2bYGSZKIKQnE_vxT-32">
          <mxGeometry relative="1" as="geometry">
            <mxPoint x="320" y="780" as="targetPoint" />
          </mxGeometry>
        </mxCell>
        <mxCell id="LLfy2bYGSZKIKQnE_vxT-32" value="Case2&lt;br&gt;angka1 - angka2 = Hasil" style="rounded=0;whiteSpace=wrap;html=1;" vertex="1" parent="WIyWlLk6GJQsqaUBKTNV-1">
          <mxGeometry x="120" y="750" width="150" height="60" as="geometry" />
        </mxCell>
        <mxCell id="LLfy2bYGSZKIKQnE_vxT-33" value="Case5&lt;br&gt;Exit" style="rounded=0;whiteSpace=wrap;html=1;" vertex="1" parent="WIyWlLk6GJQsqaUBKTNV-1">
          <mxGeometry x="550" y="710" width="210" height="80" as="geometry" />
        </mxCell>
        <mxCell id="LLfy2bYGSZKIKQnE_vxT-61" style="edgeStyle=none;curved=1;rounded=0;orthogonalLoop=1;jettySize=auto;html=1;fontSize=12;startSize=8;endSize=8;" edge="1" parent="WIyWlLk6GJQsqaUBKTNV-1" source="LLfy2bYGSZKIKQnE_vxT-34">
          <mxGeometry relative="1" as="geometry">
            <mxPoint x="480" y="850" as="targetPoint" />
          </mxGeometry>
        </mxCell>
        <mxCell id="LLfy2bYGSZKIKQnE_vxT-34" value="Case3&lt;br&gt;angka1 * angka2 = Hasil" style="rounded=0;whiteSpace=wrap;html=1;" vertex="1" parent="WIyWlLk6GJQsqaUBKTNV-1">
          <mxGeometry x="240" y="820" width="150" height="60" as="geometry" />
        </mxCell>
        <mxCell id="LLfy2bYGSZKIKQnE_vxT-55" value="Division" style="whiteSpace=wrap;html=1;align=center;verticalAlign=middle;treeFolding=1;treeMoving=1;newEdgeStyle={&quot;edgeStyle&quot;:&quot;elbowEdgeStyle&quot;,&quot;startArrow&quot;:&quot;none&quot;,&quot;endArrow&quot;:&quot;none&quot;};" vertex="1" parent="WIyWlLk6GJQsqaUBKTNV-1">
          <mxGeometry x="400" y="900" width="150" height="60" as="geometry" />
        </mxCell>
        <mxCell id="LLfy2bYGSZKIKQnE_vxT-56" value="" style="edgeStyle=elbowEdgeStyle;elbow=vertical;sourcePerimeterSpacing=0;targetPerimeterSpacing=0;startArrow=none;endArrow=none;rounded=0;curved=0;fontSize=12;startSize=8;endSize=8;exitX=0.5;exitY=1;exitDx=0;exitDy=0;" edge="1" target="LLfy2bYGSZKIKQnE_vxT-55" parent="WIyWlLk6GJQsqaUBKTNV-1">
          <mxGeometry relative="1" as="geometry">
            <mxPoint x="80" y="730" as="sourcePoint" />
            <Array as="points">
              <mxPoint x="60" y="980" />
              <mxPoint x="85" y="1040" />
            </Array>
          </mxGeometry>
        </mxCell>
        <mxCell id="LLfy2bYGSZKIKQnE_vxT-60" value="" style="endArrow=classic;html=1;rounded=0;fontSize=12;startSize=8;endSize=8;entryX=0.563;entryY=-0.091;entryDx=0;entryDy=0;entryPerimeter=0;" edge="1" parent="WIyWlLk6GJQsqaUBKTNV-1" target="LLfy2bYGSZKIKQnE_vxT-34">
          <mxGeometry width="50" height="50" relative="1" as="geometry">
            <mxPoint x="324" y="640" as="sourcePoint" />
            <mxPoint x="450" y="880" as="targetPoint" />
          </mxGeometry>
        </mxCell>
        <mxCell id="LLfy2bYGSZKIKQnE_vxT-62" value="" style="endArrow=classic;html=1;rounded=0;fontSize=12;startSize=8;endSize=8;" edge="1" parent="WIyWlLk6GJQsqaUBKTNV-1">
          <mxGeometry width="50" height="50" relative="1" as="geometry">
            <mxPoint x="480" y="640" as="sourcePoint" />
            <mxPoint x="480" y="900" as="targetPoint" />
          </mxGeometry>
        </mxCell>
        <mxCell id="LLfy2bYGSZKIKQnE_vxT-64" value="Case4&lt;br&gt;angka1 / angka2 = Hasil" style="rounded=0;whiteSpace=wrap;html=1;" vertex="1" parent="WIyWlLk6GJQsqaUBKTNV-1">
          <mxGeometry x="400" y="900" width="150" height="60" as="geometry" />
        </mxCell>
        <mxCell id="LLfy2bYGSZKIKQnE_vxT-65" value="" style="endArrow=classic;html=1;rounded=0;fontSize=12;startSize=8;endSize=8;" edge="1" parent="WIyWlLk6GJQsqaUBKTNV-1">
          <mxGeometry width="50" height="50" relative="1" as="geometry">
            <mxPoint x="660" y="640" as="sourcePoint" />
            <mxPoint x="660" y="710" as="targetPoint" />
          </mxGeometry>
        </mxCell>
        <mxCell id="LLfy2bYGSZKIKQnE_vxT-67" value="Invalid Operator" style="shape=parallelogram;perimeter=parallelogramPerimeter;whiteSpace=wrap;html=1;fixedSize=1;" vertex="1" parent="WIyWlLk6GJQsqaUBKTNV-1">
          <mxGeometry x="680" y="840" width="190" height="80" as="geometry" />
        </mxCell>
        <mxCell id="LLfy2bYGSZKIKQnE_vxT-74" value="" style="line;strokeWidth=2;direction=south;html=1;" vertex="1" parent="WIyWlLk6GJQsqaUBKTNV-1">
          <mxGeometry x="650" y="790" width="10" height="160" as="geometry" />
        </mxCell>
        <mxCell id="LLfy2bYGSZKIKQnE_vxT-76" value="" style="line;strokeWidth=2;html=1;" vertex="1" parent="WIyWlLk6GJQsqaUBKTNV-1">
          <mxGeometry x="650" y="940" width="140" height="10" as="geometry" />
        </mxCell>
        <mxCell id="LLfy2bYGSZKIKQnE_vxT-77" value="" style="line;strokeWidth=2;direction=south;html=1;" vertex="1" parent="WIyWlLk6GJQsqaUBKTNV-1">
          <mxGeometry x="780" y="920" width="10" height="30" as="geometry" />
        </mxCell>
        <mxCell id="LLfy2bYGSZKIKQnE_vxT-83" value="" style="endArrow=none;html=1;rounded=0;fontSize=12;startSize=8;endSize=8;entryX=0.514;entryY=0.652;entryDx=0;entryDy=0;entryPerimeter=0;" edge="1" parent="WIyWlLk6GJQsqaUBKTNV-1" target="LLfy2bYGSZKIKQnE_vxT-76">
          <mxGeometry width="50" height="50" relative="1" as="geometry">
            <mxPoint x="722" y="1040" as="sourcePoint" />
            <mxPoint x="450" y="880" as="targetPoint" />
          </mxGeometry>
        </mxCell>
        <mxCell id="LLfy2bYGSZKIKQnE_vxT-84" value="" style="endArrow=none;html=1;rounded=0;fontSize=12;startSize=8;endSize=8;" edge="1" parent="WIyWlLk6GJQsqaUBKTNV-1">
          <mxGeometry width="50" height="50" relative="1" as="geometry">
            <mxPoint x="250" y="1040" as="sourcePoint" />
            <mxPoint x="720" y="1040" as="targetPoint" />
          </mxGeometry>
        </mxCell>
        <mxCell id="LLfy2bYGSZKIKQnE_vxT-87" value="Hasil" style="shape=parallelogram;perimeter=parallelogramPerimeter;whiteSpace=wrap;html=1;fixedSize=1;" vertex="1" parent="WIyWlLk6GJQsqaUBKTNV-1">
          <mxGeometry x="150" y="1010" width="120" height="60" as="geometry" />
        </mxCell>
        <mxCell id="LLfy2bYGSZKIKQnE_vxT-88" value="" style="endArrow=classic;html=1;rounded=0;fontSize=12;startSize=8;endSize=8;" edge="1" parent="WIyWlLk6GJQsqaUBKTNV-1">
          <mxGeometry width="50" height="50" relative="1" as="geometry">
            <mxPoint x="480" y="1040" as="sourcePoint" />
            <mxPoint x="480" y="1090" as="targetPoint" />
          </mxGeometry>
        </mxCell>
        <mxCell id="LLfy2bYGSZKIKQnE_vxT-89" value="End" style="strokeWidth=2;html=1;shape=mxgraph.flowchart.terminator;whiteSpace=wrap;" vertex="1" parent="WIyWlLk6GJQsqaUBKTNV-1">
          <mxGeometry x="430" y="1090" width="100" height="60" as="geometry" />
        </mxCell>
      </root>
    </mxGraphModel>
  </diagram>
</mxfile>
